<svg width="1200" height="1200" viewBox="0 0 1200 1200" fill="none" xmlns="http://www.w3.org/2000/svg">
<rect width="1200" height="1200" fill="#F5F5F5"/>
<circle cx="600" cy="600" r="600" fill="black"/>
<line x1="555" y1="803" x2="555" y2="397" stroke="#0496FF" stroke-width="10"/>
<path d="M623.195 498H615.188V441.984H623.195L656.867 485.422V441.984H664.875V498H656.867L623.195 454.562V498ZM727.258 489.992C727.258 491.086 727.049 492.128 726.633 493.117C726.216 494.081 725.643 494.927 724.914 495.656C724.185 496.385 723.326 496.958 722.336 497.375C721.372 497.792 720.344 498 719.25 498H687.258C686.164 498 685.122 497.792 684.133 497.375C683.169 496.958 682.323 496.385 681.594 495.656C680.865 494.927 680.292 494.081 679.875 493.117C679.458 492.128 679.25 491.086 679.25 489.992V449.992C679.25 448.898 679.458 447.87 679.875 446.906C680.292 445.917 680.865 445.07 681.594 444.367C682.323 443.638 683.169 443.065 684.133 442.648C685.122 442.206 686.164 441.984 687.258 441.984H719.25C720.344 441.984 721.372 442.206 722.336 442.648C723.326 443.065 724.185 443.638 724.914 444.367C725.643 445.07 726.216 445.917 726.633 446.906C727.049 447.87 727.258 448.898 727.258 449.992V489.992ZM687.258 449.992V489.992H719.25V449.992H687.258ZM749.68 474.016C748.586 474.016 747.544 473.807 746.555 473.391C745.591 472.948 744.745 472.375 744.016 471.672C743.286 470.943 742.714 470.096 742.297 469.133C741.88 468.143 741.672 467.102 741.672 466.008V449.992C741.672 448.898 741.88 447.87 742.297 446.906C742.714 445.917 743.286 445.07 744.016 444.367C744.745 443.638 745.591 443.065 746.555 442.648C747.544 442.206 748.586 441.984 749.68 441.984H776.867C777.961 441.984 778.99 442.206 779.953 442.648C780.943 443.065 781.802 443.638 782.531 444.367C783.26 445.07 783.833 445.917 784.25 446.906C784.667 447.87 784.875 448.898 784.875 449.992V457.219H776.867V449.992H749.68V466.008H776.867C777.961 466.008 778.99 466.216 779.953 466.633C780.943 467.049 781.802 467.622 782.531 468.352C783.26 469.081 783.833 469.94 784.25 470.93C784.667 471.893 784.875 472.922 784.875 474.016V489.992C784.875 491.086 784.667 492.128 784.25 493.117C783.833 494.081 783.26 494.927 782.531 495.656C781.802 496.385 780.943 496.958 779.953 497.375C778.99 497.792 777.961 498 776.867 498H748.898C747.805 498 746.763 497.792 745.773 497.375C744.81 496.958 743.964 496.385 743.234 495.656C742.505 494.927 741.932 494.081 741.516 493.117C741.099 492.128 740.891 491.086 740.891 489.992V482.805H748.898V489.992H776.867V474.016H749.68Z" fill="white"/>
<path d="M652.58 581.99C657.235 581.99 660.816 580.737 663.322 578.23C665.829 575.724 667.082 572.143 667.082 567.488V546.492C667.082 544.214 666.757 542.179 666.105 540.389C665.454 538.598 664.494 537.085 663.225 535.848C661.988 534.578 660.474 533.618 658.684 532.967C656.893 532.316 654.859 531.99 652.58 531.99H626.994V581.99H652.58ZM616.984 592V521.98H652.58C656.324 521.98 659.693 522.566 662.688 523.738C665.715 524.878 668.286 526.521 670.402 528.67C672.551 530.786 674.195 533.357 675.334 536.385C676.506 539.412 677.092 542.781 677.092 546.492V567.488C677.092 571.199 676.506 574.568 675.334 577.596C674.195 580.623 672.551 583.211 670.402 585.359C668.286 587.475 665.715 589.119 662.688 590.291C659.693 591.43 656.324 592 652.58 592H616.984ZM703.166 521.98V592H693.156V521.98H703.166ZM721.184 531.99C721.184 530.623 721.444 529.337 721.965 528.133C722.486 526.896 723.202 525.838 724.113 524.959C725.025 524.048 726.083 523.331 727.287 522.811C728.524 522.257 729.826 521.98 731.193 521.98H769.182C770.549 521.98 771.835 522.257 773.039 522.811C774.276 523.331 775.35 524.048 776.262 524.959C777.173 525.838 777.889 526.896 778.41 528.133C778.931 529.337 779.191 530.623 779.191 531.99V541.023H769.182V531.99H731.193V581.99H769.182V573.006H779.191V581.99C779.191 583.357 778.931 584.66 778.41 585.896C777.889 587.101 777.173 588.159 776.262 589.07C775.35 589.982 774.276 590.698 773.039 591.219C771.835 591.74 770.549 592 769.182 592H731.193C729.826 592 728.524 591.74 727.287 591.219C726.083 590.698 725.025 589.982 724.113 589.07C723.202 588.159 722.486 587.101 721.965 585.896C721.444 584.66 721.184 583.357 721.184 581.99V531.99ZM795.207 521.98H846.232V531.99H805.217V552.01H840.227V562.02H805.217V581.99H846.232V592H795.207V521.98ZM871.232 592H861.223V521.98H871.232L913.322 576.277V521.98H923.332V592H913.322L871.232 537.703V592Z" fill="white"/>
<path d="M621.477 636.985C621.477 634.935 621.867 633.006 622.648 631.199C623.43 629.344 624.504 627.757 625.871 626.438C627.238 625.071 628.825 623.997 630.632 623.216C632.487 622.386 634.44 621.971 636.491 621.971H693.474C695.524 621.971 697.453 622.386 699.26 623.216C701.115 623.997 702.727 625.071 704.094 626.438C705.461 627.757 706.535 629.344 707.316 631.199C708.098 633.006 708.488 634.935 708.488 636.985V650.535H693.474V636.985H636.491V711.985H693.474V686.497H664.982V671.482H708.488V711.985C708.488 714.036 708.098 715.989 707.316 717.845C706.535 719.651 705.461 721.238 704.094 722.605C702.727 723.973 701.115 725.047 699.26 725.828C697.453 726.609 695.524 727 693.474 727H636.491C634.44 727 632.487 726.609 630.632 725.828C628.825 725.047 627.238 723.973 625.871 722.605C624.504 721.238 623.43 719.651 622.648 717.845C621.867 715.989 621.477 714.036 621.477 711.985V636.985ZM799.968 695.359H748.332V712.571H799.968V727H748.332C746.379 727 744.523 726.634 742.766 725.901C741.008 725.12 739.47 724.095 738.151 722.825C736.882 721.507 735.856 719.969 735.075 718.211C734.343 716.453 733.977 714.573 733.977 712.571V663.426C733.977 661.424 734.343 659.544 735.075 657.786C735.856 656.028 736.882 654.515 738.151 653.245C739.47 651.927 741.008 650.901 742.766 650.169C744.523 649.388 746.379 648.997 748.332 648.997H785.539C787.541 648.997 789.421 649.388 791.179 650.169C792.937 650.901 794.45 651.927 795.72 653.245C797.038 654.515 798.063 656.028 798.796 657.786C799.577 659.544 799.968 661.424 799.968 663.426V695.359ZM748.332 663.426V680.931H785.539V663.426H748.332ZM890.056 695.359H838.42V712.571H890.056V727H838.42C836.467 727 834.611 726.634 832.854 725.901C831.096 725.12 829.558 724.095 828.239 722.825C826.97 721.507 825.944 719.969 825.163 718.211C824.431 716.453 824.064 714.573 824.064 712.571V663.426C824.064 661.424 824.431 659.544 825.163 657.786C825.944 656.028 826.97 654.515 828.239 653.245C829.558 651.927 831.096 650.901 832.854 650.169C834.611 649.388 836.467 648.997 838.42 648.997H875.627C877.629 648.997 879.509 649.388 881.267 650.169C883.024 650.901 884.538 651.927 885.808 653.245C887.126 654.515 888.151 656.028 888.884 657.786C889.665 659.544 890.056 661.424 890.056 663.426V695.359ZM838.42 663.426V680.931H875.627V663.426H838.42ZM965.715 727L928.508 693.675V727H914.152V618.968H928.508V679.759L962.712 648.997H983L941.105 686.644L986.003 727H965.715ZM1043.57 712.571V694.48H1009.37C1007.37 694.48 1005.49 694.114 1003.73 693.382C1001.97 692.601 1000.43 691.575 999.113 690.306C997.844 688.987 996.818 687.449 996.037 685.691C995.305 683.934 994.938 682.054 994.938 680.052V663.426C994.938 661.424 995.305 659.544 996.037 657.786C996.818 656.028 997.844 654.515 999.113 653.245C1000.43 651.927 1001.97 650.901 1003.73 650.169C1005.49 649.388 1007.37 648.997 1009.37 648.997H1055V663.426H1009.37V680.052H1043.57C1045.57 680.052 1047.43 680.442 1049.14 681.224C1050.9 681.956 1052.43 682.981 1053.75 684.3C1055.07 685.569 1056.1 687.083 1056.83 688.841C1057.61 690.599 1058 692.479 1058 694.48V712.571C1058 714.573 1057.61 716.453 1056.83 718.211C1056.1 719.969 1055.07 721.507 1053.75 722.825C1052.43 724.095 1050.9 725.12 1049.14 725.901C1047.43 726.634 1045.57 727 1043.57 727H994.938V712.571H1043.57Z" fill="#FFBC42"/>
<path d="M191.798 650.174C194.763 644.245 200.822 640.5 207.451 640.5H436.549C443.178 640.5 449.237 644.245 452.202 650.174L487.202 720.174C493.02 731.81 484.558 745.5 471.549 745.5H172.451C159.442 745.5 150.98 731.81 156.798 720.174L191.798 650.174Z" stroke="white" stroke-width="15"/>
<path d="M182.955 500.171C181.649 489.726 189.793 480.5 200.32 480.5H443.68C454.207 480.5 462.351 489.726 461.045 500.171L447.295 610.171C446.201 618.928 438.756 625.5 429.93 625.5H214.069C205.244 625.5 197.799 618.928 196.705 610.171L182.955 500.171Z" stroke="white" stroke-width="15"/>
<rect x="151" y="523" width="50" height="50" fill="#006BA6"/>
<rect x="272" y="473" width="50" height="50" fill="#0496FF"/>
<rect x="172" y="473" width="50" height="50" fill="#FFBC42"/>
<rect x="222" y="448" width="50" height="50" fill="#D81159"/>
<rect x="222" y="523" width="50" height="50" fill="#8F2D56"/>
</svg>
